<svg width="30" height="30" viewBox="0 0 30 30" fill="none" xmlns="http://www.w3.org/2000/svg">
<path d="M15 1.875C22.248 1.875 28.125 7.75195 28.125 15C28.125 22.248 22.248 28.125 15 28.125C7.75195 28.125 1.875 22.248 1.875 15C1.875 7.75195 7.75195 1.875 15 1.875ZM15 25.8984C21.0176 25.8984 25.8984 21.0176 25.8984 15C25.8984 12.3926 24.9814 9.99609 23.4521 8.12109L8.12109 23.4521C9.99609 24.9814 12.3926 25.8984 15 25.8984ZM6.54785 21.8789L21.8789 6.54785C20.0039 5.01855 17.6074 4.10156 15 4.10156C8.98242 4.10156 4.10156 8.98242 4.10156 15C4.10156 17.6074 5.01855 20.0039 6.54785 21.8789Z" fill="#1355FF"/>
</svg>
