<svg width="32" height="32" viewBox="0 0 32 32" fill="none" xmlns="http://www.w3.org/2000/svg">
<g clip-path="url(#clip0_66_1031)">
<path d="M25.3333 3.99967H19.76C19.2 2.45301 17.7333 1.33301 16 1.33301C14.2667 1.33301 12.8 2.45301 12.24 3.99967H6.66667C5.2 3.99967 4 5.19967 4 6.66634V25.333C4 26.7997 5.2 27.9997 6.66667 27.9997H25.3333C26.8 27.9997 28 26.7997 28 25.333V6.66634C28 5.19967 26.8 3.99967 25.3333 3.99967ZM16 3.66634C16.2933 3.66634 16.5467 3.79967 16.7333 3.99967C16.8933 4.17301 17 4.41301 17 4.66634C17 5.21301 16.5467 5.66634 16 5.66634C15.4533 5.66634 15 5.21301 15 4.66634C15 4.41301 15.1067 4.17301 15.2667 3.99967C15.4533 3.79967 15.7067 3.66634 16 3.66634ZM25.3333 25.333H6.66667V6.66634H25.3333V25.333ZM16 7.99967C13.8 7.99967 12 9.79967 12 11.9997C12 14.1997 13.8 15.9997 16 15.9997C18.2 15.9997 20 14.1997 20 11.9997C20 9.79967 18.2 7.99967 16 7.99967ZM16 13.333C15.2667 13.333 14.6667 12.733 14.6667 11.9997C14.6667 11.2663 15.2667 10.6663 16 10.6663C16.7333 10.6663 17.3333 11.2663 17.3333 11.9997C17.3333 12.733 16.7333 13.333 16 13.333ZM8 21.9597V23.9997H24V21.9597C24 18.6263 18.7067 17.1863 16 17.1863C13.2933 17.1863 8 18.613 8 21.9597ZM11.08 21.333C12 20.5863 14.2533 19.8397 16 19.8397C17.7467 19.8397 20.0133 20.5863 20.92 21.333H11.08Z" fill="#1355FF"/>
</g>
<defs>
<clipPath id="clip0_66_1031">
<rect width="32" height="32" fill="white"/>
</clipPath>
</defs>
</svg>
