<svg width="32" height="32" viewBox="0 0 32 32" fill="none" xmlns="http://www.w3.org/2000/svg">
<g clip-path="url(#clip0_66_1036)">
<path fill-rule="evenodd" clip-rule="evenodd" d="M18.667 7.99984V5.33317H13.3337V7.99984H18.667ZM5.33366 10.6665V25.3332H26.667V10.6665H5.33366ZM26.667 7.99984C28.147 7.99984 29.3337 9.1865 29.3337 10.6665V25.3332C29.3337 26.8132 28.147 27.9998 26.667 27.9998H5.33366C3.85366 27.9998 2.66699 26.8132 2.66699 25.3332L2.68033 10.6665C2.68033 9.1865 3.85366 7.99984 5.33366 7.99984H10.667V5.33317C10.667 3.85317 11.8537 2.6665 13.3337 2.6665H18.667C20.147 2.6665 21.3337 3.85317 21.3337 5.33317V7.99984H26.667Z" fill="#1355FF"/>
</g>
<defs>
<clipPath id="clip0_66_1036">
<rect width="32" height="32" fill="white"/>
</clipPath>
</defs>
</svg>
